
<svg width="200px" height="130px" viewBox="0 0 200 130" version="1.1" xmlns="http://www.w3.org/2000/svg" xmlns:xlink="http://www.w3.org/1999/xlink">
    <!-- Generator: Sketch 50 (54983) - http://www.bohemiancoding.com/sketch -->
    <desc>Created with Sketch.</desc>
    <defs></defs>
    <g id="Page-1" stroke="none" stroke-width="1" fill="none" fill-rule="evenodd">
        <g id="Mobile" transform="translate(-97.000000, -317.000000)" fill="#FFFFFF" fill-rule="nonzero">
            <g id="ChatHealth-modified" transform="translate(97.000000, 317.000000)">
                <path d="M13.6514107,126.2425 C18.3266458,126.2425 20.3805643,123.448125 22.0012539,123.448125 C22.9184953,123.448125 23.5335423,124.14375 23.5335423,125.231875 C23.5335423,127.19375 19.1103448,129.548125 13.6514107,129.548125 C4.63573668,129.548125 0.00376175549,121.831875 0.00376175549,113.7675 C0.00376175549,105.705 4.63573668,97.98375 13.8708464,97.98375 C19.3799373,97.98375 22.8783699,100.948125 22.8783699,102.51375 C22.8783699,103.523125 22.2658307,104.35 21.2984326,104.35 C19.5517241,104.35 18.6796238,101.3 13.8708464,101.3 C6.95736677,101.3 4.11410658,107.84 4.11410658,113.766875 C4.11410658,119.696875 7.04263323,126.2425 13.6514107,126.2425" id="Shape"></path>
                <path d="M41.1987461,114.860625 C41.1987461,110.803125 38.3579937,109.1475 35.8181818,109.1475 C33.2802508,109.1475 30.4420063,110.8025 30.4420063,114.860625 L30.4420063,127.50625 C30.4420063,128.764375 29.6959248,129.54875 28.5191223,129.54875 C27.3366771,129.54875 26.5880878,128.764375 26.5880878,127.50625 L26.5880878,97.6825 C26.5880878,96.419375 27.3366771,95.635 28.5191223,95.635 C29.6959248,95.635 30.4420063,96.419375 30.4420063,97.6825 L30.4420063,108.8025 L30.5278997,108.88625 C32.231348,106.7075 34.6407524,105.8325 36.9573668,105.8325 C40.5435737,105.8325 45.0476489,108.09875 45.0476489,114.639375 L45.0476489,127.50625 C45.0476489,128.764375 44.3015674,129.54875 43.1216301,129.54875 C41.9398119,129.54875 41.1987461,128.764375 41.1987461,127.50625 L41.1987461,114.860625 Z" id="Shape"></path>
                <path d="M68.8344828,127.671875 C68.8344828,129.02875 67.7862069,129.54875 67.0451411,129.54875 C66.2564263,129.54875 65.2482759,129.02875 65.2482759,127.671875 L65.2482759,126.06375 L65.1598746,126.06375 C63.4990596,128.415625 61.3141066,129.54875 58.8238245,129.54875 C52.2583072,129.54875 48.5887147,123.8375 48.5887147,117.695 C48.5887147,111.54375 52.2583072,105.833125 58.8238245,105.833125 C61.49279,105.833125 63.3680251,106.96625 65.1598746,108.930625 L65.2482759,108.930625 L65.2482759,107.709375 C65.2482759,106.355625 66.2564263,105.833125 67.0451411,105.833125 C67.7862069,105.833125 68.8344828,106.355625 68.8344828,107.709375 L68.8344828,127.671875 Z M58.8231975,126.2425 C63.5435737,126.2425 65.2050157,121.614375 65.2050157,117.695 C65.2050157,113.768125 63.5435737,109.146875 58.8231975,109.146875 C54.0978056,109.146875 52.4338558,113.768125 52.4338558,117.695 C52.4338558,121.614375 54.0978056,126.2425 58.8231975,126.2425 Z" id="Shape"></path>
                <path d="M74.6062696,101.0825 C74.6062696,99.81875 75.3523511,99.0325 76.5291536,99.0325 C77.7141066,99.0325 78.4570533,99.81875 78.4570533,101.0825 L78.4570533,106.096875 L80.030094,106.096875 C81.3003135,106.096875 81.9554859,106.708125 81.9554859,107.750625 C81.9554859,108.803125 81.3003135,109.408125 80.030094,109.408125 L78.4570533,109.408125 L78.4570533,127.505625 C78.4570533,128.765 77.7141066,129.54875 76.5291536,129.54875 C75.3523511,129.54875 74.6062696,128.765 74.6062696,127.505625 L74.6062696,109.408125 L73.0332288,109.408125 C71.7655172,109.408125 71.1128527,108.8025 71.1128527,107.750625 C71.1128527,106.708125 71.7655172,106.096875 73.0332288,106.096875 L74.6062696,106.096875 L74.6062696,101.0825 Z" id="Shape"></path>
                <path d="M91.3561129,127.239375 C91.3561129,128.764375 90.615047,129.548125 89.430721,129.548125 C88.2532915,129.548125 87.507837,128.764375 87.507837,127.239375 L87.507837,100.295625 C87.507837,98.77125 88.2532915,97.985 89.430721,97.985 C90.615047,97.985 91.3561129,98.77125 91.3561129,100.295625 L91.3561129,112.06625 L107.756113,112.06625 L107.756113,100.295625 C107.756113,98.77125 108.499687,97.985 109.67837,97.985 C110.86395,97.985 111.603762,98.77125 111.603762,100.295625 L111.603762,127.239375 C111.603762,128.764375 110.863323,129.548125 109.67837,129.548125 C108.49906,129.548125 107.756113,128.764375 107.756113,127.239375 L107.756113,115.38125 L91.3561129,115.38125 L91.3561129,127.239375 Z" id="Shape"></path>
                <path d="M118.598746,119.174375 C118.598746,123.141875 121.134169,126.2425 125.46395,126.2425 C130.580564,126.2425 131.895925,123.099375 133.337931,123.099375 C134.038245,123.099375 134.739185,123.7075 134.739185,124.7975 C134.739185,126.669375 129.970533,129.549375 125.423824,129.549375 C117.986207,129.549375 114.75047,123.838125 114.75047,117.695625 C114.75047,111.41625 118.68652,105.83375 125.205016,105.83375 C131.540439,105.83375 135.218182,111.545 135.218182,117.125 C135.218182,118.479375 134.739812,119.175 133.073981,119.175 L118.598746,119.175 L118.598746,119.174375 Z M131.369279,116.295625 C131.369279,112.98375 129.446395,109.146875 125.204389,109.146875 C120.433229,108.971875 118.732288,112.765 118.598746,116.295625 L131.369279,116.295625 Z" id="Shape"></path>
                <path d="M157.60627,127.671875 C157.60627,129.02875 156.554859,129.54875 155.81442,129.54875 C155.028213,129.54875 154.023197,129.02875 154.023197,127.671875 L154.023197,126.06375 L153.931661,126.06375 C152.273354,128.415625 150.085893,129.54875 147.590596,129.54875 C141.032602,129.54875 137.356113,123.8375 137.356113,117.695 C137.356113,111.54375 141.032602,105.833125 147.590596,105.833125 C150.260188,105.833125 152.142947,106.96625 153.931661,108.930625 L154.023197,108.930625 L154.023197,107.709375 C154.023197,106.355625 155.02884,105.833125 155.81442,105.833125 C156.555486,105.833125 157.60627,106.355625 157.60627,107.709375 L157.60627,127.671875 Z M147.589969,126.2425 C152.315361,126.2425 153.974295,121.614375 153.974295,117.695 C153.974295,113.768125 152.315361,109.146875 147.589969,109.146875 C142.867085,109.146875 141.20815,113.768125 141.20815,117.695 C141.208777,121.614375 142.867085,126.2425 147.589969,126.2425 Z" id="Shape"></path>
                <path d="M166.001254,127.505625 C166.001254,128.765 165.257053,129.54875 164.07837,129.54875 C162.901567,129.54875 162.155486,128.765 162.155486,127.505625 L162.155486,97.6825 C162.155486,96.419375 162.901567,95.635 164.07837,95.635 C165.25768,95.635 166.001254,96.419375 166.001254,97.6825 L166.001254,127.505625 Z" id="Shape"></path>
                <path d="M171.774922,101.0825 C171.774922,99.81875 172.519122,99.0325 173.698433,99.0325 C174.880251,99.0325 175.621317,99.81875 175.621317,101.0825 L175.621317,106.096875 L177.198746,106.096875 C178.468966,106.096875 179.119749,106.708125 179.119749,107.750625 C179.119749,108.803125 178.468966,109.408125 177.198746,109.408125 L175.621317,109.408125 L175.621317,127.505625 C175.621317,128.765 174.879624,129.54875 173.698433,129.54875 C172.518495,129.54875 171.774922,128.765 171.774922,127.505625 L171.774922,109.408125 L170.197492,109.408125 C168.932288,109.408125 168.271473,108.8025 168.271473,107.750625 C168.271473,106.708125 168.932915,106.096875 170.197492,106.096875 L171.774922,106.096875 L171.774922,101.0825 Z" id="Shape"></path>
                <path d="M196.00627,114.860625 C196.00627,110.803125 193.157994,109.1475 190.623197,109.1475 C188.089655,109.1475 185.242006,110.8025 185.242006,114.860625 L185.242006,127.50625 C185.242006,128.764375 184.503448,129.54875 183.319122,129.54875 C182.139185,129.54875 181.396238,128.764375 181.396238,127.50625 L181.396238,97.6825 C181.396238,96.419375 182.139812,95.635 183.319122,95.635 C184.504075,95.635 185.242006,96.419375 185.242006,97.6825 L185.242006,108.8025 L185.332915,108.88625 C187.036991,106.7075 189.443887,105.8325 191.759248,105.8325 C195.346708,105.8325 199.852665,108.09875 199.852665,114.639375 L199.852665,127.50625 C199.852665,128.764375 199.109091,129.54875 197.929781,129.54875 C196.747335,129.54875 196.006897,128.764375 196.006897,127.50625 L196.006897,114.860625 L196.00627,114.860625 Z" id="Shape"></path>
                <path d="M104.058307,75.69375 C104.147335,75.604375 104.225705,75.519375 104.310345,75.43 C103.392476,73.4175 102.572414,71.3675 101.522257,69.428125 C100.751724,68.009375 99.4031348,67.08625 97.9404389,66.38875 C96.8401254,65.87375 95.8915361,66.009375 95.0087774,66.8575 C93.0326019,68.76625 91.7304075,71.141875 90.1705329,73.51125 C94.8056426,74.73625 99.4106583,75.36 104.058307,75.69375" id="Shape"></path>
                <path d="M151.55047,27.48875 C147.945455,18.711875 141.528527,12.455 133.404389,7.884375 C122.72163,1.87875 111.174922,-0.171875 99.0144201,0.73125 C95.1836991,1.018125 91.4344828,1.7125 87.7517241,2.708125 C82.0388715,4.25125 76.7034483,6.6625 71.8420063,10.035625 C66.4438871,13.773125 62.0225705,18.3825 59.0357367,24.2675 C55.9517241,30.369375 54.9830721,36.79375 56.2394984,43.5 C57.168652,48.455 59.2532915,52.948125 62.3373041,56.9375 C65.0094044,60.38 65.9579937,64.31125 65.830094,68.536875 C65.6858934,73.611875 64.3366771,78.430625 62.3222571,83.066875 C62.2363636,83.261875 62.2012539,83.45875 62.1153605,83.726875 C62.3260188,83.668125 62.446395,83.660625 62.5554859,83.618125 C69.9097179,80.461875 77.2827586,77.3375 84.6131661,74.11625 C85.3329154,73.81 86.0288401,73.026875 86.3285266,72.2975 C87.6275862,69.204375 88.6539185,66.02125 89.0200627,62.66 C89.4476489,58.729375 88.6426332,55.155 86.0877743,52.041875 C82.9492163,48.223125 78.7373041,46.156875 74.0934169,44.815 C73.5065831,44.644375 72.8840125,44.6175 72.2777429,44.524375 C72.2695925,44.446875 72.2695925,44.358125 72.262069,44.284375 C72.522884,44.221875 72.7793103,44.1525 73.0438871,44.12125 C76.0815047,43.77625 79.169279,43.66 82.1561129,43.0475 C85.4532915,42.37625 88.7360502,41.45 91.8934169,40.275625 C95.9730408,38.755625 99.6714734,36.47625 103.089655,33.746875 C103.89906,33.095625 104.843887,32.61125 105.598119,31.89375 C108.627586,29.036875 111.57931,26.09 114.083386,22.748125 C114.297806,22.4575 114.375549,21.945625 114.316614,21.5775 C113.970533,19.46875 113.453292,17.386875 113.205016,15.27 C112.999373,13.40125 112.894044,11.501875 114.263323,9.8425 C115.810658,7.97 118.832602,7.528125 120.75047,9.024375 C121.974922,9.978125 122.495925,11.280625 122.624451,12.87 C123.013166,12.831875 123.297179,12.808125 123.581191,12.769375 C126.801254,12.346875 128.93605,15.56125 128.095925,18.32125 C127.430094,20.491875 125.902821,21.655 123.80627,22.015625 C121.278997,22.441875 118.703448,22.616875 116.160502,22.941875 C115.81442,22.985 115.347962,23.163125 115.184326,23.41875 C111.660815,29.32 108.144828,35.231875 104.6721,41.163125 C101.665831,46.323125 100.615674,51.828125 102.268339,57.64 C102.890909,59.814375 103.851411,61.900625 104.762382,63.981875 C106.324765,67.560625 107.14232,71.32875 107.806897,75.1425 C107.84953,75.388125 108.144828,75.763125 108.351097,75.79 C109.105329,75.88375 109.879624,75.90625 110.633856,75.85625 C115.009404,75.576875 119.287774,74.72375 123.459561,73.401875 C132.533542,70.518125 140.465831,65.861875 146.521003,58.37875 C150.904075,52.95125 153.405016,46.783125 153.735423,39.824375 C153.937931,35.568125 153.168025,31.44 151.55047,27.48875 M88.3034483,37.64625 C88.1128527,37.665625 87.8990596,37.661875 87.6971787,37.661875 C85.3090909,37.685 83.4695925,36.665625 82.1586207,34.676875 C81.1630094,33.164375 81.2175549,30.83875 82.2752351,29.260625 C84.7956113,25.508125 90.5943574,25.600625 92.9937304,29.43875 C95.1090909,32.82375 92.4683386,37.460625 88.3034483,37.64625" id="Shape"></path>
                <path d="M104.058307,75.69375 C99.4106583,75.36 94.8062696,74.73625 90.1705329,73.51125 C91.7304075,71.1425 93.0326019,68.76625 95.0087774,66.8575 C95.8915361,66.009375 96.8401254,65.87375 97.9404389,66.38875 C99.4031348,67.08625 100.752351,68.01 101.522257,69.428125 C102.572414,71.3675 103.392476,73.4175 104.310345,75.43 C104.225078,75.519375 104.146708,75.604375 104.058307,75.69375" id="Shape"></path>
            </g>
        </g>
    </g>
</svg>