<?xml version="1.0" encoding="UTF-8"?>
<svg width="256px" height="256px" viewBox="0 0 256 256" version="1.1" xmlns="http://www.w3.org/2000/svg" xmlns:xlink="http://www.w3.org/1999/xlink">
    <!-- Generator: Sketch 47.1 (45422) - http://www.bohemiancoding.com/sketch -->
    <title>Logo1</title>
    <desc>Created with Sketch.</desc>
    <defs>
        <polygon id="path-1" points="0.118899083 184.526007 0.118899083 0.249351972 215.582883 0.249351972 215.582883 184.526007"></polygon>
    </defs>
    <g id="Updated" stroke="none" stroke-width="1" fill="none" fill-rule="evenodd">
        <g id="Logo1">
            <g id="ChatHealth-logo-colour-CMYK-original-(linear)" transform="translate(18.000000, -14.000000)">
                <g id="Group-4" transform="translate(0.000000, 49.000000)">
                    <mask id="mask-2" fill="white">
                        <use xlink:href="#path-1"></use>
                    </mask>
                    <g id="Clip-2"></g>
                    <path d="M108.216,159.72449 C106.491963,155.227858 104.353761,150.916695 100.86011,147.534849 C99.0369908,145.770923 96.807633,144.35623 94.5921468,143.073733 C92.6164404,141.931324 90.4386055,142.172039 88.9226422,143.961616 C85.843156,147.597988 82.852844,151.313283 79.9992661,155.125258 C78.3029725,157.392318 76.896,159.882335 75.4513761,162.326972 C75.2690642,162.632798 75.0788257,162.859701 74.8766972,163.043197 C84.7492844,165.572676 95.2342018,167.048534 106.131303,167.265572 C107.756257,167.297141 109.371303,167.289248 110.980404,167.265572 C110.068844,164.747931 109.175119,162.224372 108.216,159.72449" id="Fill-1" fill="#FFFFFF" mask="url(#mask-2)"></path>
                    <path d="M83.4473394,77.0448715 C77.6926239,81.2593537 69.3062752,80.1445679 65.0794128,74.4956622 C59.8795596,67.5543941 64.2391927,58.7189767 72.7028257,57.0162154 C73.5866422,56.8366659 74.4922569,56.7518237 75.3364404,56.6314663 C82.2682569,57.1050037 87.4938716,61.2287246 88.0526972,67.4241714 C88.4133578,71.4669963 86.6992294,74.6653464 83.4473394,77.0448715 Z M109.446606,0.276577723 C49.9237431,-0.889507956 0.925431193,35.5472166 0.0138715596,81.6658066 C-0.309137615,97.6891261 5.23155963,112.777209 15.0942385,125.69294 L15.0764037,125.69294 C32.0353761,147.325704 13.5406239,184.526007 13.5406239,184.526007 L68.1509725,161.158913 C69.7957431,156.279506 71.5237431,151.530321 72.9426055,146.694321 C74.650789,140.867838 75.8120367,134.926918 75.4890275,128.784744 C75.0273028,120.046007 71.4841101,112.749586 65.1725505,106.747501 C58.3972844,100.307393 50.4944587,95.8245728 41.4462385,93.3661248 C41.1668257,93.2911481 40.9032661,93.1569792 40.6615046,92.7524994 C42.4885872,92.6242497 44.3216147,92.5334884 46.1467156,92.3618311 C61.7561835,90.9057038 76.5630826,86.8194712 90.6585688,79.8249302 C96.8888807,76.7291799 102.072881,72.3114712 107.720587,68.4817381 C116.104954,62.797317 122.814826,55.3568617 129.257174,47.6500416 C130.144954,46.5865557 130.095413,45.6967001 129.707009,44.4950991 C128.02855,39.3098654 126.290642,34.1344969 124.88367,28.8762595 C123.768,24.7032118 123.728367,20.5202987 127.229945,17.1936989 C130.033982,14.5280783 133.353248,13.316612 137.175853,14.4353439 C140.841908,15.5086952 143.009835,18.0579045 143.703413,21.8264725 C143.806459,22.388798 143.984807,22.935339 144.147303,23.5765875 C145.516624,23.2135422 146.842349,22.6630551 148.209688,22.5308592 C154.91956,21.8817185 159.509064,28.0495422 157.41644,34.7974492 C156.528661,37.6623501 154.69167,39.6571261 152.020404,41.0343305 C146.913688,43.670355 141.392807,44.9350942 135.808514,45.9295226 C133.735706,46.3004602 132.449615,47.0916622 131.353761,48.9937038 C124.114789,61.5858507 116.620183,74.0300171 109.403009,86.6300563 C105.063193,94.2027075 102.806092,102.454095 102.835817,111.208617 C102.86356,119.866458 105.086972,128.0626 108.986862,135.74377 C112.977908,143.608436 115.022972,152.01767 116.67567,160.566991 C117.08389,162.66634 117.375193,164.799231 117.72,167.007099 C171.886459,163.589738 214.71589,128.964294 215.569982,85.8802889 C216.481541,39.7715643 168.97145,1.44069033 109.446606,0.276577723 L109.446606,0.276577723 Z" id="Fill-3" fill="#FFFFFF" mask="url(#mask-2)"></path>
                </g>
            </g>
        </g>
    </g>
</svg>